<?xml version="1.0" encoding="utf-8"?>
<!-- Generator: Adobe Illustrator 21.1.0, SVG Export Plug-In . SVG Version: 6.00 Build 0)  -->
<svg version="1.1" id="Layer_1" xmlns="http://www.w3.org/2000/svg" xmlns:xlink="http://www.w3.org/1999/xlink" x="0px" y="0px"
	 viewBox="0 0 200 200" style="enable-background:new 0 0 200 200;" xml:space="preserve">
<style type="text/css">
	.st0{fill:#F4F4F4;}
	.st1{fill:none;}
</style>
<g>
	<g>
		<path class="st0" d="M104.5,58c3.5-5.9,9.1-14.3,16.1-22.3h0c6-6.8,17.6-15.6,17.6-15.6c1.8-1.3,1.6-3.2-0.4-4.1l-14.1-6.6
			c-2-0.9-4.7-0.3-6,1.5c0,0-10.4,14.9-22.7,46.8c-37.9-17.2-74,6.9-74,48.6c0,43.6,33.6,109.9,79,89.9c47.8,20.7,79-46.3,79-89.9
			C179,64.1,146.6,39.4,104.5,58z"/>
		<path class="st0" d="M96,43.8c2.2-0.2,4.1-2.1,4.3-4.3c0,0,1.4-17.1-10.5-29c-11.9-11.9-29-10.5-29-10.5c-2.2,0.2-4.1,2.1-4.3,4.3
			c0,0-1.4,17.1,10.5,29C78.9,45.2,96,43.8,96,43.8z"/>
	</g>
</g>
<g>
	<rect class="st1" width="6" height="5.7"/>
	<rect y="194.3" class="st1" width="6" height="5.7"/>
	<rect x="194" y="194.3" class="st1" width="6" height="5.7"/>
	<rect x="194" class="st1" width="6" height="5.7"/>
</g>
</svg>
