<?xml version="1.0" encoding="utf-8"?>
<!-- Generator: Adobe Illustrator 21.1.0, SVG Export Plug-In . SVG Version: 6.00 Build 0)  -->
<svg version="1.1" id="Layer_1" xmlns="http://www.w3.org/2000/svg" xmlns:xlink="http://www.w3.org/1999/xlink" x="0px" y="0px"
	 viewBox="0 0 200 200" style="enable-background:new 0 0 200 200;" xml:space="preserve">
<style type="text/css">
	.st0{fill:#F4F4F4;}
</style>
<g>
	<g>
		<path class="st0" d="M100.5,0C45.5,0,1,44.5,1,99.5S45.5,199,100.5,199S200,154.4,200,99.5S155.4,0,100.5,0z M143.5,118.4h-42.2
			c-0.1,0-0.3,0-0.4,0c-0.1,0-0.3,0-0.4,0c-3.8,0-6.9-3.1-6.9-6.9V41.3c0-3.8,3.1-6.9,6.9-6.9s6.9,3.1,6.9,6.9v63.4h36.1
			c3.8,0,6.9,3.1,6.9,6.9C150.4,115.3,147.3,118.4,143.5,118.4z"/>
	</g>
</g>
</svg>
