<?xml version="1.0" encoding="utf-8"?>
<!-- Generator: Adobe Illustrator 21.1.0, SVG Export Plug-In . SVG Version: 6.00 Build 0)  -->
<svg version="1.1" id="Layer_1" xmlns="http://www.w3.org/2000/svg" xmlns:xlink="http://www.w3.org/1999/xlink" x="0px" y="0px"
	 viewBox="0 0 200 200" style="enable-background:new 0 0 200 200;" xml:space="preserve">
<style type="text/css">
	.st0{display:none;opacity:0.38;}
	.st1{fill:#F4F4F4;}
	.st2{fill:none;}
</style>
<g id="gSD5y2_1_" class="st0">
	
		<image style="display:inline;overflow:visible;" width="585" height="339" id="gSD5y2_2_" xlink:href="63A57F2EAE45DAD.png"  transform="matrix(1 0 0 1 -580 -43)">
	</image>
</g>
<path class="st1" d="M158.3,35c0-0.1-0.1-0.1-0.1-0.2l-2.2-3.3c-11.6-17.8-30.5-28.8-51.8-30.2l-0.2,0c-0.8,0-1.6-0.1-2.6-0.1
	c-0.4,0-0.8,0-1.2,0H100h-0.2c-0.4,0-0.8,0-1.2,0c-1,0-1.8,0.1-2.6,0.1l-0.2,0C74.5,2.6,55.6,13.7,44,31.5l-2.2,3.3
	c0,0.1-0.1,0.1-0.1,0.2c-12.4,21.9-12.3,48.6,1.4,69.6l54.1,92.8c0.6,0.9,1.7,1.5,2.8,1.5c1.1,0,2.2-0.6,2.8-1.5l54.1-92.8
	C170.6,83.5,170.7,56.9,158.3,35z M140.4,73.3c-1.7,7.4-5.8,14.3-11.4,19.3L99.8,119L71.1,92.5c-5.5-5-9.6-11.9-11.4-19.3
	c-1.3-5.4-0.7-8.4-0.7-8.4c1.1-12.1,9.6-22.3,21.5-22.3c8.8,0,15.9,5.5,19.2,13.4c3.3-7.9,10.9-13.4,19.7-13.4
	c11.9,0,20.4,10.2,21.5,22.3C141.1,64.8,141.7,67.8,140.4,73.3z"/>
<rect class="st2" width="6" height="5.7"/>
<rect y="194.3" class="st2" width="6" height="5.7"/>
<rect x="194" y="194.3" class="st2" width="6" height="5.7"/>
<rect x="194" class="st2" width="6" height="5.7"/>
</svg>
