<?xml version="1.0" encoding="utf-8"?>
<!-- Generator: Adobe Illustrator 21.1.0, SVG Export Plug-In . SVG Version: 6.00 Build 0)  -->
<svg version="1.1" xmlns="http://www.w3.org/2000/svg" xmlns:xlink="http://www.w3.org/1999/xlink" x="0px" y="0px"
	 viewBox="0 0 341 370" style="enable-background:new 0 0 341 370;" xml:space="preserve">
<style type="text/css">
	.st0{fill:#00A651;}
	.st1{fill:#3E97D1;}
	.st2{fill:#F9F9F9;}
</style>
<g id="pasaulis">
	<g>
		<g id="CircleBlue" transform="translate(160, 180)">
			<path class="st0" d="M0,144c-79.4,0-144-64.6-144-144S-79.4-144,0-144S144-79.4,144,0S79.4,144,0,144z"/>
		</g>
		<path class="st1" d="M247,255.9v12.2c0,2.7-2.2,4.9-4.9,4.9h-25.2c-2.7,0-4.9-2.2-4.9-4.9v-38.7c0-2.7-2.2-4.9-4.9-4.9h-21.7
			c-2.7,0-4.9-2.2-4.9-4.9v-42.7c0-2.7,2.2-4.9,4.9-4.9h8.7c2.7,0,4.9-2.2,4.9-4.9v-33.7c0-2.7-2.2-4.9-4.9-4.9h-21.7
			c-2.7,0-4.9-2.2-4.9-4.9V79.9c0-2.7,2.2-4.9,4.9-4.9h72.7c4.7,0,6.7-5.9,3-8.8C223.7,47.3,193.2,36,160,36c-1.1,0-2.1,0-3.2,0
			c-2.7,0.1-4.8,2.3-4.8,4.9v21.6c0,2.7-2.2,4.9-4.9,4.9H95.4c-2.7,0-4.9-2.2-4.9-4.9l0,0c0-3.9-4.3-6.3-7.6-4.2
			c-13,8.3-24.7,18.6-34.4,30.5c-2.6,3.2-0.4,8.1,3.8,8.1h31.2c2.7,0,4.9,2.2,4.9,4.9V128c0,2.7,2.2,4.9,4.9,4.9h6.2
			c2.7,0,4.9,2.2,4.9,4.9v62.7c0,2.7-2.2,4.9-4.9,4.9H79.9c-2.7,0-4.9,2.2-4.9,4.9v20.2c0,2.7-2.2,4.9-4.9,4.9H44.4
			c-2.7,0-4.9-2.2-4.9-4.9v-70.7c0-2.7-2.2-4.9-4.9-4.9H22.4c-2.5,0-4.5,1.8-4.9,4.2c-1,6.8-1.5,13.7-1.5,20.8
			c0,79.4,64.6,144,144,144c50.4,0,94.9-26.1,120.6-65.4c2.1-3.3-0.2-7.6-4.1-7.6H252C249.2,251,247,253.2,247,255.9z"/>
		<rect x="109.5" y="264.5" class="st0" width="36.5" height="39.5"/>
	</g>
</g>
<g id="debesys">
	<g>
		<path id="_x36_" class="st2" d="M144.2,173H97.7c-3.5,0-6.2-2.8-6.2-6.2v-18c0-3.5,2.8-6.2,6.2-6.2h46.5c3.5,0,6.2,2.8,6.2,6.2v18
			C150.5,170.2,147.7,173,144.2,173z"/>
		<path id="_x35_" class="st2" d="M313.2,205h-60c-3.5,0-6.2-2.8-6.2-6.2v-16.5c0-3.5,2.8-6.2,6.2-6.2h60c3.5,0,6.2,2.8,6.2,6.2
			v16.5C319.5,202.2,316.7,205,313.2,205z"/>
		<path id="_x34_" class="st2" d="M29.7,256h108c3.5,0,6.2-2.8,6.2-6.2v-9.5c0-3.5-2.8-6.2-6.2-6.2h-108c-3.5,0-6.2,2.8-6.2,6.2v9.5
			C23.5,253.2,26.3,256,29.7,256z"/>
		<path id="_x33_" class="st2" d="M301.2,109H200.8c-3.5,0-6.2-2.8-6.2-6.2v-7c0-3.5,2.8-6.2,6.2-6.2h100.5c3.5,0,6.2,2.8,6.2,6.2v7
			C307.5,106.2,304.7,109,301.2,109z"/>
		<path id="_x32_" class="st2" d="M266.2,312.5h-66.5c-3.5,0-6.2-2.8-6.2-6.2v-2.5c0-3.5,2.8-6.2,6.2-6.2h66.5
			c3.5,0,6.2,2.8,6.2,6.2v2.5C272.5,309.7,269.7,312.5,266.2,312.5z"/>
		<path id="_x31_" class="st2" d="M194.2,45.5h-43.5c-3.5,0-6.2-2.8-6.2-6.2l0,0c0-3.5,2.8-6.2,6.2-6.2h43.5c3.5,0,6.2,2.8,6.2,6.2
			l0,0C200.5,42.7,197.7,45.5,194.2,45.5z"/>
	</g>
	<path id="_x37_" class="st2" d="M90.8,111.5H24.2c-3.5,0-6.2-2.8-6.2-6.2v-11c0-3.5,2.8-6.2,6.2-6.2h66.5c3.5,0,6.2,2.8,6.2,6.2v11
		C97,108.7,94.2,111.5,90.8,111.5z"/>
</g>
</svg>
