<svg xmlns="http://www.w3.org/2000/svg" viewBox="0 0 282 85.33"><defs><style>.cls-1{fill:#f4f4f4;}</style></defs><title>Asset 3</title><g id="Layer_2" data-name="Layer 2"><g id="Layer_9" data-name="Layer 9"><rect class="cls-1" y="20.02" width="15.87" height="65.31"/><path class="cls-1" d="M184.68.22h15.87V85.33H184.68Z"/><path class="cls-1" d="M237.55,20V.22H221.8V20h-11V33.41h11V55l.13,30.32h15.64s0-31,0-31.62V33.41h18.68V20Z"/><path class="cls-1" d="M266.13,20H282V85.33H266.13Z"/><path class="cls-1" d="M153.15,20V56.85c-.08,2.85.48,8.14-1.84,10.75s-9.51,3.32-13.9,3.32-7.83-1.3-10.32-3.91-3.72-6.18-3.72-10.74V20h-16V60.92q0,11.6,6.35,18.31c4.23,4.48,16.36,6.1,23.68,6.1a62.19,62.19,0,0,0,15.7-2l0,2h14.29V20Z"/><rect class="cls-1" y="0.22" width="15.87" height="12.98"/><rect class="cls-1" x="266.13" width="15.87" height="13.2" transform="translate(548.13 13.2) rotate(-180)"/><path class="cls-1" d="M84.8,26.19c-4.64-4.4-15.24-6.22-24-6.16a59.74,59.74,0,0,0-14.51,1.64V20h-16V85.33h16V49.2q0-6.83,3.91-10.8t10.62-4q6.71,0,10.62,4t3.91,10.8V85.33h16V44.56C91.27,36.83,89.33,30.48,84.8,26.19Z"/></g></g></svg>