<?xml version="1.0" encoding="utf-8"?>
<!-- Generator: Adobe Illustrator 21.1.0, SVG Export Plug-In . SVG Version: 6.00 Build 0)  -->
<svg version="1.1" id="Layer_1" xmlns="http://www.w3.org/2000/svg" xmlns:xlink="http://www.w3.org/1999/xlink" x="0px" y="0px"
	 viewBox="0 0 282 85.3" style="enable-background:new 0 0 282 85.3;" xml:space="preserve">
<style type="text/css">
	.st0{display:none;}
	.st1{display:inline;fill:#151414;}
	.st2{fill:#F4F4F4;}
	.st3{font-family:'Nanami-Thin';}
	.st4{font-size:16.3262px;}
</style>
<g class="st0">
	<polygon class="st1" points="11.9,21 11.9,18 -4,18 -4,83.3 -3,83.3 -3,21 	"/>
	<polygon class="st1" points="196.5,1.2 196.5,-1.8 180.7,-1.8 180.7,83.3 181.7,83.3 181.7,1.2 	"/>
	<polygon class="st1" points="218.8,21 218.8,1.2 233.5,1.2 233.5,-1.8 217.8,-1.8 217.8,18 206.8,18 206.8,31.4 207.8,31.4 
		207.8,21 	"/>
	<rect x="234.5" y="18" class="st1" width="17.7" height="3"/>
	<polygon class="st1" points="218.8,34.4 217.8,34.4 217.8,53 217.9,83.3 218.9,83.3 218.8,56 	"/>
	<polygon class="st1" points="278,21 278,18 262.1,18 262.1,83.3 263.1,83.3 263.1,21 	"/>
	<path class="st1" d="M104.4,21h15v-3h-16v40.9c0,4.3,0.7,8.1,2,11.5c-0.7-2.6-1-5.4-1-8.5V21z"/>
	<path class="st1" d="M134.4,71.9c4.4,0,11.6-0.7,13.9-3.3c2.3-2.6,1.8-7.9,1.8-10.8V21h13.2v-3h-14.2v36.9
		c-0.1,2.8,0.5,8.1-1.8,10.8c-2.3,2.6-9.5,3.3-13.9,3.3c-4.4,0-7.8-1.3-10.3-3.9c-0.9-1-1.7-2.1-2.3-3.3c0.6,2.5,1.6,4.6,3.3,6.3
		C126.6,70.6,130,71.9,134.4,71.9z"/>
	<polygon class="st1" points="11.9,1.2 11.9,-1.8 -4,-1.8 -4,11.2 -3,11.2 -3,1.2 	"/>
	<polygon class="st1" points="278,1 278,-2 262.1,-2 262.1,11.2 263.1,11.2 263.1,1 	"/>
	<path class="st1" d="M70.9,43c0.3,1.3,0.5,2.7,0.5,4.2v36.1h1V50.2C72.4,47.4,71.9,45,70.9,43z"/>
	<path class="st1" d="M43.3,21v1.7C48,21.5,52.9,21,57.8,21c8.8-0.1,19.4,1.8,24,6.2c1.9,1.8,3.4,4.1,4.5,6.6
		c-1-3.8-2.8-7.1-5.5-9.6c-4.6-4.4-15.2-6.2-24-6.2c-4.9,0-9.8,0.5-14.5,1.6V18h-16v65.3h1V21H43.3z"/>
	<polygon class="st1" points="11.9,83.3 -3,83.3 -3,86.3 12.9,86.3 12.9,21 11.9,21 	"/>
	<polygon class="st1" points="196.5,83.3 181.7,83.3 181.7,86.3 197.5,86.3 197.5,1.2 196.5,1.2 	"/>
	<path class="st1" d="M252.2,31.4h-18.7v20.3c0,0.6,0,31.6,0,31.6h-14.7l0,3h15.6c0,0,0-31,0-31.6V34.4h18.7V21h-1V31.4z"/>
	<rect x="233.5" y="1.2" class="st1" width="1" height="16.8"/>
	<polygon class="st1" points="278,83.3 263.1,83.3 263.1,86.3 279,86.3 279,21 278,21 	"/>
	<path class="st1" d="M163.4,83.3h-14.3v-2c-5.1,1.3-10.4,2-15.7,2c-7.3,0-19.5-1.6-23.7-6.1c-1.9-2-3.3-4.3-4.3-6.8
		c1,3.9,2.8,7.2,5.3,9.8c4.2,4.5,16.4,6.1,23.7,6.1c5.3,0,10.6-0.7,15.7-2v2h14.3V21h-1V83.3z"/>
	<path class="st1" d="M120.8,61.7c-0.3-1.4-0.5-2.8-0.5-4.4V21h-1v33.3C119.4,57.1,119.9,59.6,120.8,61.7z"/>
	<polygon class="st1" points="11.9,11.2 -3,11.2 -3,14.2 12.9,14.2 12.9,1.2 11.9,1.2 	"/>
	<polygon class="st1" points="278,1 278,11.2 263.1,11.2 263.1,14.2 279,14.2 279,1 	"/>
	<path class="st1" d="M87.4,42.6v40.8h-15v3h16V45.6c0-4.4-0.7-8.4-2.1-11.8C87,36.5,87.3,39.4,87.4,42.6z"/>
	<path class="st1" d="M56.8,32.4c-4.5,0-8,1.4-10.6,4c-2.6,2.6-3.9,6.2-3.9,10.8v36.1h-15v3h16V50.2c0-4.6,1.3-8.2,3.9-10.8
		c2.6-2.6,6.1-4,10.6-4c4.5,0,8,1.3,10.6,4c1,1,1.8,2.2,2.5,3.6c-0.6-2.6-1.7-4.8-3.5-6.6C64.8,33.7,61.3,32.4,56.8,32.4z"/>
</g>
<rect x="0.2" y="37.2" class="st2" width="278.4" height="25"/>
<text transform="matrix(1 0 0 1 6.2139 54.5874)" class="st3 st4">digital advertising and media company</text>
</svg>
