<?xml version="1.0" encoding="utf-8"?>
<!-- Generator: Adobe Illustrator 21.1.0, SVG Export Plug-In . SVG Version: 6.00 Build 0)  -->
<svg version="1.1" id="Layer_1" xmlns="http://www.w3.org/2000/svg" xmlns:xlink="http://www.w3.org/1999/xlink" x="0px" y="0px"
	 viewBox="0 0 282 85.3" style="enable-background:new 0 0 282 85.3;" xml:space="preserve">
<style type="text/css">
	.st0{display:none;}
	.st1{display:inline;fill:#151414;}
	.st2{display:inline;}
	.st3{fill:#151414;}
	.st4{fill:#F4F4F4;}
	.st5{font-family:'Nanami-Thin';}
	.st6{font-size:16.3262px;}
</style>
<g class="st0">
	<polygon class="st1" points="13.9,21 13.9,18 -2,18 -2,83.3 -1,83.3 -1,21 	"/>
	<polygon class="st1" points="198.5,1.2 198.5,-1.8 182.7,-1.8 182.7,83.3 183.7,83.3 183.7,1.2 	"/>
	<polygon class="st1" points="219.8,-1.8 219.8,18 208.8,18 208.8,31.4 209.8,31.4 209.8,21 220.8,21 220.8,1.2 235.5,1.2 
		235.5,-1.8 	"/>
	<rect x="236.5" y="18" class="st1" width="17.7" height="3"/>
	<polygon class="st1" points="220.8,34.4 219.8,34.4 219.8,53 219.9,83.3 220.9,83.3 220.8,56 	"/>
	<polygon class="st1" points="280,21 280,18 264.1,18 264.1,83.3 265.1,83.3 265.1,21 	"/>
	<path class="st1" d="M106.4,21h15v-3h-16v40.9c0,4.3,0.7,8.1,2,11.5c-0.7-2.6-1-5.4-1-8.5V21z"/>
	<path class="st1" d="M136.4,71.9c4.4,0,11.6-0.7,13.9-3.3c2.3-2.6,1.8-7.9,1.8-10.8V21h13.2v-3h-14.2v36.9
		c-0.1,2.8,0.5,8.1-1.8,10.8c-2.3,2.6-9.5,3.3-13.9,3.3c-4.4,0-7.8-1.3-10.3-3.9c-0.9-1-1.7-2.1-2.3-3.3c0.6,2.5,1.6,4.6,3.3,6.3
		C128.6,70.6,132,71.9,136.4,71.9z"/>
	<polygon class="st1" points="13.9,1.2 13.9,-1.8 -2,-1.8 -2,11.2 -1,11.2 -1,1.2 	"/>
	<polygon class="st1" points="280,1 280,-2 264.1,-2 264.1,11.2 265.1,11.2 265.1,1 	"/>
	<path class="st1" d="M72.9,43c0.3,1.3,0.5,2.7,0.5,4.2v36.1h1V50.2C74.4,47.4,73.9,45,72.9,43z"/>
	<path class="st1" d="M59.8,21c8.8-0.1,19.4,1.8,24,6.2c1.9,1.8,3.4,4.1,4.5,6.6c-1-3.8-2.8-7.1-5.5-9.6c-4.6-4.4-15.2-6.2-24-6.2
		c-4.9,0-9.8,0.5-14.5,1.6V18h-16v65.3h1V21h16v1.7"/>
	<rect x="235.5" y="1.2" class="st1" width="1" height="16.8"/>
	<path class="st1" d="M122.8,61.7c-0.3-1.4-0.5-2.8-0.5-4.4V21h-1v33.3C121.4,57.1,121.9,59.6,122.8,61.7z"/>
	<polygon class="st1" points="280,1 280,11.2 265.1,11.2 265.1,14.2 281,14.2 281,1 	"/>
</g>
<g id="Layer_2" class="st0">
	<g id="Layer_9" class="st2">
		<rect x="-4" y="19.5" class="st3" width="15.9" height="65.3"/>
		<path class="st3" d="M180.7-0.3h15.9v85.1h-15.9V-0.3z"/>
		<path class="st3" d="M233.6,19.5V-0.3h-15.8v19.8h-11v13.4h11v21.6l0.1,30.3h15.6c0,0,0-31,0-31.6V32.9h18.7V19.5H233.6z"/>
		<path class="st3" d="M262.1,19.5H278v65.3h-15.9V19.5z"/>
		<path class="st3" d="M149.1,19.5v36.8c-0.1,2.8,0.5,8.1-1.8,10.8s-9.5,3.3-13.9,3.3s-7.8-1.3-10.3-3.9s-3.7-6.2-3.7-10.7V19.5h-16
			v40.9c0,7.7,2.1,13.8,6.3,18.3c4.2,4.5,16.4,6.1,23.7,6.1c5.3,0,10.6-0.7,15.7-2v2h14.3V19.5H149.1z"/>
		<rect x="-4" y="-0.3" class="st3" width="15.9" height="13"/>
		<rect x="262.1" y="-0.5" class="st3" width="15.9" height="13.2"/>
		<path class="st3" d="M80.8,25.7c-4.6-4.4-15.2-6.2-24-6.2c-4.9,0-9.8,0.5-14.5,1.6v-1.7h-16v65.3h16V48.7c0-4.6,1.3-8.2,3.9-10.8
			s6.1-4,10.6-4c4.5,0,8,1.3,10.6,4s3.9,6.3,3.9,10.8v36.1h16V44.1C87.3,36.3,85.3,30,80.8,25.7z"/>
	</g>
</g>
<rect x="0.2" y="36.2" class="st4" width="278.4" height="25"/>
<text transform="matrix(1 0 0 1 6.2139 53.5874)" class="st5 st6">digital advertising and media company</text>
</svg>
