<?xml version="1.0" encoding="utf-8"?>
<!-- Generator: Adobe Illustrator 21.1.0, SVG Export Plug-In . SVG Version: 6.00 Build 0)  -->
<svg version="1.1" id="Layer_1" xmlns="http://www.w3.org/2000/svg" xmlns:xlink="http://www.w3.org/1999/xlink" x="0px" y="0px"
	 viewBox="0 0 282 85.3" style="enable-background:new 0 0 282 85.3;" xml:space="preserve">
<style type="text/css">
	.st0{fill:#F4F4F4;}
</style>
<title>Asset 3</title>
<g id="Layer_2">
	<g id="Layer_9">
		<rect x="2" y="19" class="st0" width="15.9" height="65.3"/>
		<path class="st0" d="M186.7-0.8h15.9v85.1h-15.9V-0.8z"/>
		<path class="st0" d="M239.6,19V-0.8h-15.8V19h-11v13.4h11V54l0.1,30.3h15.6c0,0,0-31,0-31.6V32.4h18.7V19H239.6z"/>
		<path class="st0" d="M268.1,19H284v65.3h-15.9V19z"/>
		<path class="st0" d="M155.1,19v36.8c-0.1,2.8,0.5,8.1-1.8,10.8s-9.5,3.3-13.9,3.3s-7.8-1.3-10.3-3.9c-2.5-2.6-3.7-6.2-3.7-10.7V19
			h-16v40.9c0,7.7,2.1,13.8,6.3,18.3c4.2,4.5,16.4,6.1,23.7,6.1c5.3,0,10.6-0.7,15.7-2v2h14.3V19H155.1z"/>
		<rect x="2" y="-0.8" class="st0" width="15.9" height="13"/>
		<rect x="268.1" y="-1" class="st0" width="15.9" height="13.2"/>
		<path class="st0" d="M86.8,25.2c-4.6-4.4-15.2-6.2-24-6.2c-4.9,0-9.8,0.5-14.5,1.6V19h-16v65.3h16V48.2c0-4.6,1.3-8.2,3.9-10.8
			s6.1-4,10.6-4c4.5,0,8,1.3,10.6,4s3.9,6.3,3.9,10.8v36.1h16V43.6C93.3,35.8,91.3,29.5,86.8,25.2z"/>
	</g>
</g>
</svg>
