<?xml version="1.0" encoding="utf-8"?>
<!-- Generator: Adobe Illustrator 21.1.0, SVG Export Plug-In . SVG Version: 6.00 Build 0)  -->
<svg version="1.1" id="Capa_1" xmlns="http://www.w3.org/2000/svg" xmlns:xlink="http://www.w3.org/1999/xlink" x="0px" y="0px"
	 viewBox="0 0 200 200" style="enable-background:new 0 0 200 200;" xml:space="preserve">
<style type="text/css">
	.st0{fill:#F4F4F4;}
	.st1{fill:none;}
</style>
<g>
	<path class="st0" d="M14.4,169.2h92.7c4.5,0,8.7-1.2,12.2-3.6l56.7-56.6c2.5-2.5,3.9-5.8,3.9-9.4c0-3.5-1.4-6.9-3.9-9.4
		c-2.5-2.5-5.8-3.9-9.4-3.9c-3.5,0-6.9,1.4-9.4,3.9l-43.8,43.8l41.9-82.5c0-0.1,0-0.1,0.1-0.2c2-2.3,5.8-2.9,8.7-1.3
		c1.6,0.9,2.8,2.4,3.3,4.2c0.5,1.7,0.3,3.5-0.6,5c-0.3,0.5-0.4,1.1-0.4,1.6c0,1.1,0.6,2.3,1.7,2.9c1.6,0.9,3.6,0.4,4.5-1.2
		c1.8-3.1,6.1-4.1,9.4-2.2c3.4,2,4.7,6.1,2.9,9.3c0,0,0,0,0,0c-0.9,1.6-0.4,3.6,1.2,4.5c0.5,0.3,1.1,0.4,1.7,0.4
		c1.1,0,2.3-0.6,2.9-1.7c12.1-20.9,4.5-47.1-17.2-59.6C166.1,9.2,158.1,7,150,7c-15.4,0-29.2,8-36.9,21.3c-0.9,1.6-0.4,3.6,1.2,4.5
		c1.6,0.9,3.6,0.4,4.5-1.2c0,0,0,0,0,0c1.8-3,6.2-4.1,9.5-2.2c1.6,0.9,2.8,2.4,3.3,4.2c0.5,1.7,0.3,3.5-0.6,5
		c-0.3,0.5-0.4,1.1-0.4,1.7c0,1.1,0.6,2.3,1.7,2.9c1.6,0.9,3.6,0.4,4.5-1.2c1.8-3.1,6.1-4.1,9.4-2.2c1.6,0.9,2.8,2.4,3.3,4.2
		c0.5,1.7,0.3,3.5-0.6,5c-0.2,0.4-0.4,0.9-0.4,1.3l-47,92.4H14.4c-7.3,0-13.2,5.9-13.2,13.2S7.1,169.2,14.4,169.2z"/>
	<path class="st0" d="M194.2,182.3l-9.8-9.8l-28.1-28.1l42.4-42.4c1.3-1.3,1.3-3.4,0-4.7c-1.3-1.3-3.4-1.3-4.7,0l-75.2,75.2H4.3H1
		v16.6h190.4c0.1,0,0.1,0,0.2,0l2.4,2.4c0.6,0.6,1.5,1,2.3,1s1.7-0.3,2.3-1c1.3-1.3,1.3-3.4,0-4.7L194.2,182.3z M128.2,172.5
		l23.5-23.5l23.5,23.5H128.2z"/>
	<path class="st0" d="M24.2,46.7H31c0.6,4.8,2.5,9.2,5.4,12.9l-4.9,4.9c-1.3,1.3-1.3,3.4,0,4.7c0.6,0.6,1.5,1,2.3,1
		c0.8,0,1.7-0.3,2.3-1l4.9-4.9c3.7,2.8,8.1,4.8,12.9,5.4v6.8c0,1.8,1.5,3.3,3.3,3.3c1.8,0,3.3-1.5,3.3-3.3v-6.8
		c4.8-0.6,9.2-2.5,12.9-5.4l4.9,4.9c0.6,0.6,1.5,1,2.3,1c0.8,0,1.7-0.3,2.3-1c1.3-1.3,1.3-3.4,0-4.7l-4.9-4.9
		c2.8-3.7,4.8-8.1,5.4-12.9h6.9c1.8,0,3.3-1.5,3.3-3.3s-1.5-3.3-3.3-3.3h-6.8c-0.6-4.8-2.5-9.2-5.4-12.9l4.9-4.9
		c1.3-1.3,1.3-3.4,0-4.7s-3.4-1.3-4.7,0l-4.9,4.9c-3.7-2.8-8.1-4.8-12.9-5.4v-6.8c0-1.8-1.5-3.3-3.3-3.3S54,8.5,54,10.3v6.8
		c-4.8,0.6-9.2,2.5-12.9,5.4l-4.9-4.9c-1.3-1.3-3.4-1.3-4.7,0c-1.3,1.3-1.3,3.4,0,4.7l4.9,4.9c-2.9,3.7-4.8,8.1-5.4,12.9h-6.8
		c-1.8,0-3.3,1.5-3.3,3.3C20.9,45.2,22.3,46.7,24.2,46.7z"/>
</g>
<g>
	<rect class="st1" width="6" height="5.7"/>
	<rect y="194.3" class="st1" width="6" height="5.7"/>
	<rect x="194" y="194.3" class="st1" width="6" height="5.7"/>
	<rect x="194" class="st1" width="6" height="5.7"/>
</g>
</svg>
