<?xml version="1.0" encoding="utf-8"?>
<!-- Generator: Adobe Illustrator 21.1.0, SVG Export Plug-In . SVG Version: 6.00 Build 0)  -->
<svg version="1.1" id="Capa_1" xmlns="http://www.w3.org/2000/svg" xmlns:xlink="http://www.w3.org/1999/xlink" x="0px" y="0px"
	 viewBox="0 0 200 200" style="enable-background:new 0 0 200 200;" xml:space="preserve">
<style type="text/css">
	.st0{fill:#F4F4F4;}
</style>
<g>
	<g>
		<path class="st0" d="M183.1,44.4l-3,0.9l-15.9,1.4l-4.5,7.2l-3.3-1l-12.7-11.4l-1.8-5.9l-2.5-6.3l-8-7.1l-9.4-1.8l-0.2,4.3l9.2,9
			l4.5,5.3l-5.1,2.6l-4.1-1.2l-6.2-2.6l0.2-5l-8.1-3.3L109.5,41l-8.2,1.9l0.8,6.5l10.7,2l1.8-10.4l8.8,1.3l4.1,2.4h6.6l4.5,9
			l11.9,12.1l-0.9,4.7l-9.6-1.2l-16.6,8.4l-11.9,14.3l-1.6,6.3h-4.3l-8-3.7l-7.8,3.7l1.9,8.2l3.4-3.9l5.9-0.2l-0.4,7.3l4.9,1.4
			l4.9,5.5l8-2.3l9.2,1.4l10.6,2.9l5.3,0.6l9,10.2l17.4,10.2l-11.2,21.5l-11.9,5.5l-4.5,12.3l-17.2,11.5l-1.8,6.6
			c43.9-10.6,76.5-50,76.5-97.1C200,79.4,193.7,60.3,183.1,44.4z"/>
		<path class="st0" d="M111.5,152.3l-7.3-13.5l6.7-13.9l-6.7-2l-7.5-7.5l-16.6-3.7L74.6,100v6.9h-2.4L57.8,87.4v-16L47.3,54.4
			l-16.7,3H19.4l-5.7-3.7l7.2-5.7l-7.2,1.7C5.1,64.4,0,81.6,0,100c0,55.2,44.8,100,100,100c4.3,0,8.4-0.4,12.5-0.9l-1-12.1
			c0,0,4.6-18,4.6-18.6C116.1,167.8,111.5,152.3,111.5,152.3z"/>
		<path class="st0" d="M37.2,32.2l17.8-2.5l8.2-4.5l9.2,2.7L87,27.1l5-7.9l7.4,1.2l17.9-1.7l4.9-5.4l6.9-4.6l9.8,1.5l3.6-0.5
			C129.6,3.5,115.2,0,100,0C69,0,41.2,14.1,22.9,36.4h0.1L37.2,32.2z M104.2,9.9l10.2-5.6l6.6,3.8l-9.5,7.2l-9.1,0.9l-4.1-2.6
			L104.2,9.9z M74,10.8l4.5,1.9l5.9-1.9l3.2,5.6L74,19.9l-6.6-3.8C67.4,16.1,73.8,12,74,10.8z"/>
	</g>
</g>
</svg>
